<?xml version="1.0" standalone="no"?>
<!DOCTYPE svg PUBLIC "-//W3C//DTD SVG 20010904//EN"
 "http://www.w3.org/TR/2001/REC-SVG-20010904/DTD/svg10.dtd">
<svg version="1.0" xmlns="http://www.w3.org/2000/svg"
 width="512.000000pt" height="512.000000pt" viewBox="0 0 512.000000 512.000000"
 preserveAspectRatio="xMidYMid meet">

<g transform="translate(0.000000,512.000000) scale(0.100000,-0.100000)"
fill="#000000" stroke="none">
<path d="M1257 4920 c-26 -21 -26 -23 -29 -162 l-3 -141 -51 -17 c-28 -10 -74
-29 -102 -42 l-51 -25 -83 84 c-90 92 -129 118 -162 109 -29 -7 -386 -368
-386 -390 0 -32 28 -71 113 -154 l84 -83 -25 -51 c-13 -28 -32 -74 -42 -102
l-17 -51 -141 -3 c-197 -4 -184 19 -180 -314 3 -231 5 -259 21 -275 15 -15 41
-19 158 -23 l141 -5 27 -70 c15 -38 35 -83 43 -100 l16 -30 -99 -101 c-68 -70
-99 -108 -99 -124 0 -17 51 -75 187 -212 158 -158 192 -188 217 -188 23 0 48
19 127 96 l98 97 53 -25 c29 -14 77 -34 106 -44 l52 -19 0 -137 c0 -193 -26
-178 304 -178 l265 0 20 26 c19 24 21 40 21 160 l0 132 38 13 c20 6 66 25 101
40 l64 29 98 -95 c139 -134 119 -139 346 88 227 227 222 207 88 346 l-95 98
29 64 c15 35 34 81 40 102 l13 37 132 0 c120 0 136 2 160 21 l26 20 0 265 c0
330 15 304 -179 304 l-139 0 -7 27 c-3 15 -22 62 -42 105 l-36 79 96 98 c78
79 97 104 97 127 0 25 -30 59 -188 217 -137 136 -195 187 -212 187 -16 0 -54
-31 -124 -99 l-101 -99 -30 16 c-16 8 -61 28 -100 43 l-70 27 -5 141 c-4 117
-8 143 -23 158 -16 16 -44 18 -275 21 -249 3 -259 2 -285 -18z m441 -255 c2
-100 6 -133 18 -146 9 -10 48 -27 87 -39 40 -12 112 -42 161 -66 60 -31 95
-43 110 -38 11 3 60 45 109 92 l87 87 115 -115 115 -114 -90 -92 c-64 -65 -90
-98 -90 -116 0 -13 18 -59 40 -101 22 -42 49 -110 61 -149 32 -112 43 -118
195 -118 l124 0 0 -165 0 -165 -134 0 c-101 0 -136 -3 -145 -14 -6 -7 -24 -51
-40 -97 -15 -46 -45 -117 -65 -156 -20 -40 -36 -83 -36 -95 0 -15 31 -53 92
-115 l93 -93 -118 -117 -117 -118 -93 93 c-62 61 -100 92 -115 92 -12 0 -58
-18 -101 -39 -43 -22 -109 -50 -147 -62 -119 -37 -114 -28 -114 -184 l0 -135
-165 0 -165 0 0 124 c0 152 -6 163 -118 195 -39 12 -107 39 -149 61 -42 22
-88 40 -101 40 -18 0 -51 -26 -116 -90 l-92 -90 -114 115 -115 115 87 87 c47
49 89 98 92 110 5 15 -7 49 -38 110 -24 49 -54 121 -66 160 -12 39 -29 78 -39
87 -13 12 -46 16 -146 18 l-130 3 -3 163 -2 162 129 0 c155 0 160 3 190 106
12 39 42 113 67 163 25 52 43 99 40 109 -3 9 -46 58 -96 107 l-90 90 117 117
117 118 97 -95 c53 -52 103 -95 111 -95 8 0 48 17 89 39 41 21 112 51 159 66
119 38 120 40 120 196 l0 129 163 -2 162 -3 3 -130z"/>
<path d="M1520 4170 c-44 -44 -6 -120 60 -120 40 0 142 -33 192 -63 24 -14 67
-50 96 -81 257 -272 106 -714 -265 -778 -135 -23 -284 24 -389 124 -89 84
-129 166 -144 297 -9 80 -20 97 -67 107 -50 10 -73 -21 -73 -99 0 -256 212
-506 477 -562 265 -56 544 77 663 317 90 184 92 363 4 546 -49 102 -159 214
-260 265 -129 65 -256 85 -294 47z"/>
<path d="M1151 4059 c-67 -53 -121 -124 -121 -159 0 -34 32 -63 69 -63 22 0
46 18 115 86 52 53 86 95 86 107 0 28 -44 70 -73 70 -14 0 -48 -19 -76 -41z"/>
<path d="M3038 4403 c-23 -25 -23 -75 0 -97 10 -9 58 -30 106 -46 328 -111
647 -342 850 -616 l65 -88 -31 -38 c-158 -200 -19 -498 232 -498 97 0 155 23
221 89 70 71 93 131 87 234 -5 114 -61 202 -163 255 -42 22 -64 27 -137 28
l-87 2 -76 101 c-219 291 -517 513 -867 647 -120 46 -177 53 -200 27z m1325
-946 c97 -74 85 -222 -23 -277 -79 -40 -174 -12 -217 65 -49 87 -8 199 87 238
35 15 118 1 153 -26z"/>
<path d="M3301 2854 c-19 -24 -21 -40 -21 -160 l0 -132 -37 -13 c-21 -6 -67
-25 -102 -40 l-64 -29 -98 95 c-139 134 -119 139 -346 -88 -227 -227 -222
-207 -88 -346 l95 -98 -29 -64 c-15 -35 -34 -81 -40 -101 l-13 -38 -132 0
c-120 0 -136 -2 -160 -21 l-26 -20 0 -265 c0 -330 -15 -304 178 -304 l137 0
19 -52 c10 -29 30 -77 44 -106 l25 -53 -97 -98 c-77 -79 -96 -104 -96 -127 0
-25 30 -59 188 -217 137 -136 195 -187 212 -187 16 0 54 31 124 99 l101 99 30
-16 c17 -8 62 -28 100 -43 l70 -27 5 -142 c7 -194 -18 -180 305 -180 326 0
303 -13 307 182 l3 141 51 17 c28 10 74 29 102 42 l51 25 87 -88 c48 -49 100
-93 114 -99 35 -15 77 2 90 35 16 43 -9 82 -132 203 -132 129 -137 130 -231
78 -34 -19 -105 -49 -157 -66 -52 -17 -101 -39 -107 -48 -9 -11 -13 -57 -13
-144 l0 -128 -160 0 -160 0 0 123 c0 150 -5 159 -98 186 -37 11 -109 41 -160
66 -52 25 -105 45 -119 45 -19 0 -50 -24 -117 -90 l-92 -90 -109 110 -109 109
86 88 c47 49 89 98 92 111 6 17 -4 48 -37 115 -25 51 -55 124 -68 162 -33 107
-30 105 -186 105 l-133 0 0 160 0 160 128 0 c87 0 134 4 145 13 10 6 31 52 48
102 17 49 49 124 71 167 28 55 38 84 33 100 -4 13 -46 62 -93 111 l-87 87 113
112 112 113 87 -87 c49 -47 98 -89 110 -93 16 -4 50 8 115 40 50 25 124 55
163 66 102 31 105 36 105 190 l0 129 160 0 160 0 0 -133 c0 -156 -2 -153 105
-186 39 -12 112 -43 163 -67 65 -32 99 -43 115 -39 12 4 61 46 110 93 l87 87
110 -110 110 -109 -90 -92 c-66 -67 -90 -98 -90 -117 0 -14 20 -67 45 -119 25
-51 55 -123 66 -160 27 -93 36 -98 186 -98 l123 0 0 -160 0 -160 -126 0 c-69
0 -134 -5 -144 -10 -12 -6 -28 -41 -45 -95 -14 -47 -44 -119 -65 -161 -22 -41
-40 -87 -40 -101 0 -19 23 -50 89 -117 l90 -91 -25 -28 c-48 -56 -20 -127 51
-127 31 0 142 100 151 136 9 33 -17 71 -109 162 l-84 83 25 51 c13 28 32 74
42 102 l17 51 141 3 c195 4 182 -19 182 307 0 323 14 298 -180 305 l-142 5
-27 70 c-15 39 -35 84 -43 100 l-16 30 99 101 c68 70 99 108 99 124 0 17 -51
75 -187 212 -158 158 -192 188 -217 188 -23 0 -48 -19 -127 -96 l-98 -97 -65
31 c-35 17 -82 36 -105 43 l-41 12 0 139 c0 193 26 178 -304 178 l-265 0 -20
-26z"/>
<path d="M3436 2124 c-211 -51 -384 -224 -440 -441 -20 -77 -20 -221 -1 -298
52 -203 205 -367 402 -433 107 -35 264 -37 368 -5 193 61 347 215 407 408 29
92 31 252 4 339 -67 220 -227 377 -441 431 -73 19 -220 18 -299 -1z m235 -134
c83 -16 174 -63 238 -125 103 -98 146 -208 139 -359 -3 -80 -8 -101 -41 -169
-48 -103 -121 -176 -224 -224 -68 -33 -89 -38 -169 -41 -145 -7 -239 27 -343
124 -112 103 -167 262 -143 407 45 261 289 435 543 387z"/>
<path d="M740 2083 c-63 -23 -151 -113 -173 -177 -53 -154 11 -312 156 -388
33 -18 61 -23 129 -24 l87 -2 78 -103 c130 -173 312 -342 498 -462 159 -102
445 -227 522 -227 53 0 84 78 45 114 -10 9 -58 30 -106 46 -342 115 -684 372
-884 662 l-30 44 29 34 c163 197 19 502 -236 499 -38 0 -90 -8 -115 -16z m192
-149 c35 -18 66 -59 78 -103 21 -78 -34 -166 -118 -191 -78 -24 -166 31 -193
120 -10 33 -9 47 5 83 37 99 136 138 228 91z"/>
</g>
</svg>
