<?xml version="1.0" standalone="no"?>
<!DOCTYPE svg PUBLIC "-//W3C//DTD SVG 20010904//EN"
 "http://www.w3.org/TR/2001/REC-SVG-20010904/DTD/svg10.dtd">
<svg version="1.0" xmlns="http://www.w3.org/2000/svg"
 width="512.000000pt" height="512.000000pt" viewBox="0 0 512.000000 512.000000"
 preserveAspectRatio="xMidYMid meet">

<g transform="translate(0.000000,512.000000) scale(0.100000,-0.100000)"
fill="#000000" stroke="none">
<path d="M3215 4405 c-23 -22 -25 -32 -25 -115 0 -83 2 -93 25 -115 29 -30 68
-32 95 -5 17 17 20 33 20 120 0 87 -3 103 -20 120 -27 27 -66 25 -95 -5z"/>
<path d="M4060 4172 c-8 -2 -45 -34 -82 -70 -55 -54 -68 -72 -68 -98 0 -38 27
-64 66 -64 43 0 164 122 164 166 0 42 -43 78 -80 66z"/>
<path d="M2400 4143 c-30 -39 -20 -67 54 -141 51 -51 69 -63 96 -64 23 -1 39
6 52 22 33 41 24 68 -50 142 -80 79 -114 88 -152 41z"/>
<path d="M3165 4004 c-241 -39 -443 -187 -545 -399 -51 -108 -70 -190 -70
-312 0 -193 65 -354 202 -499 42 -46 80 -93 82 -106 3 -13 7 -86 9 -163 3
-166 20 -217 96 -288 77 -72 116 -82 331 -82 172 0 188 2 230 23 69 34 113 74
145 133 28 52 30 61 35 214 3 92 10 168 17 180 6 11 28 36 48 55 94 89 178
228 211 350 24 89 25 272 1 360 -9 36 -36 103 -59 150 -61 122 -188 250 -308
308 -47 23 -112 49 -145 58 -61 16 -226 26 -280 18z m210 -149 c311 -65 515
-371 451 -675 -24 -114 -73 -204 -167 -305 -44 -48 -87 -102 -95 -121 l-14
-34 -288 0 -288 0 -23 46 c-12 26 -50 76 -84 110 -71 73 -130 166 -154 239
-21 69 -29 224 -13 294 49 221 225 397 446 444 89 20 143 20 229 2z m165
-1362 c0 -62 -5 -86 -23 -117 -38 -67 -67 -76 -258 -76 -156 0 -168 1 -199 23
-52 34 -71 76 -77 167 l-6 80 282 0 281 0 0 -77z"/>
<path d="M3374 3378 l-115 -112 -69 69 c-56 56 -75 68 -101 68 -38 0 -69 -32
-69 -71 0 -36 205 -242 240 -242 33 0 330 295 330 328 0 13 -11 34 -25 47 -44
45 -66 36 -191 -87z"/>
<path d="M2135 3378 c-28 -16 -35 -28 -35 -65 0 -50 28 -63 136 -63 108 0 137
15 137 70 0 55 -29 70 -132 70 -47 0 -95 -6 -106 -12z"/>
<path d="M4176 3369 c-32 -25 -35 -70 -6 -99 17 -17 33 -20 118 -20 90 0 100
2 120 23 29 30 28 62 -3 92 -22 23 -32 25 -113 25 -75 0 -93 -3 -116 -21z"/>
<path d="M747 2402 c-16 -17 -17 -90 -17 -839 l0 -820 21 -19 c20 -18 44 -19
438 -22 450 -3 484 0 501 44 6 14 10 68 10 120 0 69 3 94 13 94 7 0 242 -34
522 -75 281 -41 539 -77 575 -81 137 -13 401 45 471 104 36 30 38 70 6 100
-30 28 -52 28 -118 -2 -30 -13 -85 -31 -124 -41 -127 -33 -234 -24 -815 62
l-525 79 -3 462 -2 462 294 0 c313 0 341 -4 406 -52 17 -12 44 -44 61 -70 41
-64 117 -131 187 -165 55 -26 65 -27 263 -33 227 -6 241 -10 279 -73 39 -63
15 -146 -52 -187 -32 -19 -52 -20 -510 -20 -262 0 -484 -3 -493 -6 -22 -9 -46
-59 -38 -81 3 -10 13 -26 21 -35 14 -17 51 -18 516 -18 469 0 504 2 542 19 62
28 119 85 145 144 l23 52 435 83 c240 45 449 82 464 82 44 0 87 -49 87 -97 0
-21 -7 -48 -15 -59 -8 -12 -69 -45 -137 -74 -68 -28 -128 -57 -135 -64 -40
-39 -9 -116 47 -116 34 0 251 92 295 125 36 27 80 105 89 158 10 55 -17 139
-60 187 -48 52 -107 80 -174 80 -29 0 -242 -36 -473 -80 -231 -44 -421 -79
-422 -78 -2 2 -12 21 -23 43 -27 54 -76 99 -137 127 -45 20 -71 23 -250 28
-214 6 -226 8 -294 65 -17 15 -49 52 -71 83 -47 68 -91 104 -168 140 l-57 27
-322 3 -323 3 0 98 c0 84 -3 102 -21 125 l-20 26 -448 0 c-421 0 -449 -1 -464
-18z"/>
<path d="M3640 1209 c-52 -23 -103 -49 -114 -59 -35 -34 -15 -99 35 -115 27
-9 237 83 256 111 28 43 -4 104 -55 104 -15 -1 -70 -19 -122 -41z"/>
</g>
</svg>
